<?xml version="1.0" encoding="UTF-8"?>
<svg xmlns="http://www.w3.org/2000/svg" width="311.22" height="47.23" viewBox="0 0 311.22 47.23">
  <defs>
    <style>
      .cls-1 {
        fill: #fff;
      }

      .cls-2 {
        fill: #e6cc53;
      }

      .cls-3 {
        fill: #9fa0a0;
      }
    </style>
  </defs>
  <g id="Layer_1" data-name="Layer 1"/>
  <g id="Layer_2" data-name="Layer 2">
    <g id="_層_1" data-name="圖層 1">
      <g>
        <g>
          <g>
            <path class="cls-1" d="M128.5,46.73V12.98h-8.26V46.73h8.26Z"/>
            <path class="cls-1" d="M128.5,7.45V0h-8.26V7.45h8.26Z"/>
          </g>
          <path class="cls-1" d="M154.59,41.22c-.17,.02-.36,.05-.35,.05l-.94,.04c-2.68,0-3.4-.37-3.71-.68-.49-.46-.72-1.44-.72-3.08V18.4h5.72v-5.41h-5.72V0h-8.1V12.98h-7.34v5.41h7.34v22.2c0,2.05,.47,3.57,1.4,4.52,1.48,1.54,4.36,2.25,8.53,2.1,0,0,3.11-.17,3.88-.22v-5.78Z"/>
          <path class="cls-1" d="M112.2,40.19c1.35-2.14,2.04-4.6,2.04-7.31s-.6-4.87-1.77-6.69c-1.17-1.82-2.94-3.16-5.25-3.99l-1.13-.41,1.07-.55c1.52-.78,2.68-1.64,3.46-2.58,1.37-1.65,2.07-3.89,2.07-6.65s-.7-5.02-2.08-6.93c-2.29-3.13-6.29-4.76-11.87-4.84h-20.46V46.73h18.93c2.37,0,4.59-.21,6.6-.64,1.98-.42,3.72-1.19,5.17-2.3,1.28-.96,2.37-2.17,3.23-3.61ZM86.7,7.45h8.88c2.31,0,4.25,.26,5.8,.78,1.9,.79,2.86,2.43,2.86,4.85,0,2.18-.73,3.73-2.17,4.61-1.37,.83-3.14,1.25-5.28,1.25h-10.1V7.45Zm15.12,31.17c-1.21,.59-2.9,.9-5.03,.9h-10.09v-13.78h10.25c2.14,.02,3.76,.3,4.95,.86,2.21,1.02,3.33,2.9,3.33,5.59,0,3.14-1.15,5.3-3.41,6.43Z"/>
          <path class="cls-1" d="M56.34,12.24c-9.36,0-16.97,7.61-16.97,16.96s7.61,16.97,16.97,16.97c6.66,0,12.75-4.05,15.45-10.11h-8.19c-1.9,2.01-4.52,3.17-7.27,3.17-3.88,0-7.45-2.28-9.09-5.82l-.34-.74h25.99c.25-1.17,.41-2.34,.41-3.47,0-9.35-7.61-16.96-16.96-16.96Zm-9.43,13.49l.34-.74c1.64-3.53,5.21-5.81,9.09-5.81s7.44,2.28,9.09,5.81l.34,.74h-18.86Z"/>
          <path class="cls-1" d="M18.43,12.24c-3.91,0-7.59,1.3-10.65,3.77l-.85,.68V.85H0V46.56H6.94v-4.85l.85,.68c3.05,2.47,6.74,3.77,10.65,3.77,9.35,0,16.96-7.61,16.96-16.97S27.79,12.24,18.43,12.24Zm0,26.99c-5.53,0-10.03-4.5-10.03-10.03s4.5-10.02,10.03-10.02,10.02,4.5,10.02,10.02-4.5,10.03-10.02,10.03Z"/>
        </g>
        <g>
          <g>
            <path class="cls-3" d="M180.47,46.16h-9.52V8.85h-12.19V.85h33.9v7.99h-12.19V46.16Z"/>
            <path class="cls-3" d="M222.53,46.16h-25.85V.85h25.85v7.87h-16.33v9.95h15.2v7.87h-15.2v11.68h16.33v7.93Z"/>
          </g>
          <path class="cls-3" d="M311.22,46.16h-9.49V26.6h-17.78v19.55h-9.52V.85h9.52V18.61h17.78V.85h9.49V46.16Z"/>
          <g>
            <path class="cls-3" d="M259.04,31.06c-2.4,3.48-6.38,5.77-10.91,5.77-7.33,0-13.27-5.98-13.27-13.35s5.94-13.35,13.27-13.35c2.76,0,5.32,.85,7.44,2.29h12.03c-3.87-6.86-11.11-11.55-19.51-11.55-12.43,0-22.51,10.14-22.51,22.64s10.08,22.64,22.51,22.64c9.79,0,18.03-6.32,21.13-15.1h-10.18Z"/>
            <path class="cls-2" d="M248.14,36.82c-7.31,0-13.27-5.95-13.29-13.3h-9.28c0,12.49,10.1,22.62,22.52,22.62s22.5-10.13,22.5-22.62h-9.19c-.02,7.35-5.95,13.3-13.26,13.3Z"/>
          </g>
        </g>
      </g>
    </g>
  </g>
</svg>