<?xml version="1.0" encoding="UTF-8"?>
<svg xmlns="http://www.w3.org/2000/svg" width="2833.64" height="742.18" viewBox="0 0 2833.64 742.18">
  <defs>
    <style>
      .cls-1 {
        fill: #fff;
      }

      .cls-2 {
        isolation: isolate;
      }

      .cls-3 {
        mix-blend-mode: multiply;
        opacity: .2;
      }
    </style>
  </defs>
  <g class="cls-2">
    <g id="Layer_1" data-name="Layer 1"/>
    <g id="Layer_2" data-name="Layer 2">
      <g id="_層_1" data-name="圖層 1">
        <g>
          <g>
            <g>
              <path class="cls-1" d="M736,493.91h137.32c18.11,0,34.76,1.24,49.93,3.72,15.18,2.48,28.19,5.94,39.04,10.4,10.85,4.46,19.3,9.81,25.33,16.05,6.03,6.24,9.06,13.13,9.06,20.66,0,5.65-.98,10.7-2.94,15.16-1.96,4.46-5.31,8.6-10.04,12.41-4.74,3.82-11.1,7.43-19.09,10.85-8,3.42-18.03,6.86-30.11,10.33v.59c12.07,1.19,23.05,3.2,32.92,6.02,9.87,2.82,18.27,6.42,25.21,10.77,6.93,4.36,12.28,9.39,16.03,15.08,3.75,5.7,5.63,12.01,5.63,18.95,0,7.83-2.81,15.16-8.44,21.99-5.63,6.84-13.63,12.78-23.99,17.83-10.37,5.05-22.89,9.02-37.57,11.89-14.69,2.87-31.09,4.31-49.2,4.31h-159.11v-207.02Zm57.28,93.18h72.94c11.42,0,21.62-.99,30.6-2.97,8.97-1.98,16.52-4.73,22.64-8.25,6.12-3.51,10.77-7.65,13.95-12.41,3.18-4.76,4.77-9.96,4.77-15.61,0-6.04-1.88-11.54-5.63-16.5-3.76-4.95-9.63-9.19-17.62-12.71-8-3.51-18.11-6.21-30.35-8.1-12.24-1.88-26.93-2.82-44.06-2.82h-47.24v79.36Zm0,98.68h61.93c16.64,0,31.09-.97,43.32-2.9,12.24-1.93,22.36-4.63,30.35-8.1,7.99-3.47,13.91-7.65,17.75-12.56,3.83-4.9,5.75-10.28,5.75-16.12,0-6.54-1.71-12.63-5.14-18.28-3.43-5.65-9.06-10.53-16.89-14.64-7.83-4.11-18.03-7.36-30.6-9.73-12.57-2.38-27.99-3.57-46.26-3.57h-60.21v85.9Z"/>
              <path class="cls-1" d="M1235.45,459.58c4.08,0,7.95,.42,11.63,1.26,3.67,.84,6.85,1.98,9.55,3.42,2.69,1.44,4.85,3.12,6.49,5.05,1.63,1.93,2.45,3.99,2.45,6.17s-.82,4.24-2.45,6.17c-1.63,1.93-3.8,3.62-6.49,5.05-2.69,1.44-5.88,2.58-9.55,3.42s-7.55,1.26-11.63,1.26-7.92-.42-11.5-1.26c-3.59-.84-6.73-1.98-9.42-3.42-2.69-1.44-4.86-3.12-6.49-5.05-1.63-1.93-2.45-3.99-2.45-6.17s.81-4.23,2.45-6.17c1.63-1.93,3.79-3.62,6.49-5.05,2.69-1.43,5.83-2.57,9.42-3.42,3.59-.84,7.42-1.26,11.5-1.26Zm-25.46,87.53l36.72-9.06h15.18v162.88h-51.89v-153.82Z"/>
              <path class="cls-1" d="M1488.15,493.91h58.5l132.67,158.87h2.69l130.22-158.87h57.52v207.02h-57.52v-169.57h-1.96l-139.77,169.57h-11.75l-141.48-168.38h-3.92v168.38h-25.21v-207.02Z"/>
              <path class="cls-1" d="M2242.65,489.15l160.57,211.78h-58.26l-52.14-69.11h-146.13l-53.85,69.11h-28.64l164.25-211.78h14.2Zm-85.92,129.3h125.57l-61.93-81.89-63.64,81.89Z"/>
              <path class="cls-1" d="M2597.68,493.91h107.95c17.78,0,34.47,1.31,50.06,3.94,15.58,2.63,29.13,6.46,40.63,11.52,11.5,5.05,20.6,11.25,27.29,18.58,6.69,7.33,10.04,15.7,10.04,25.12s-3.22,17.61-9.67,24.6c-6.45,6.99-14.93,12.78-25.46,17.39-10.53,4.61-22.52,8.03-35.98,10.25-13.46,2.23-27.13,3.35-41,3.35-5.87,0-12.08-.1-18.6-.3-6.53-.2-12.81-.47-18.85-.82-6.04-.35-11.63-.72-16.77-1.12-5.14-.4-9.26-.84-12.36-1.34v95.86h-57.28v-207.02Zm57.28,99.57c6.36,1.09,13.26,2.13,20.68,3.12,7.42,.99,14.97,1.48,22.64,1.48,12.4,0,23.21-1.11,32.43-3.34,9.22-2.23,16.89-5.3,23.01-9.21,6.12-3.91,10.69-8.47,13.71-13.67,3.02-5.2,4.53-10.78,4.53-16.72,0-6.93-2-13.25-6-18.95-4-5.7-9.43-10.53-16.28-14.49-6.85-3.96-14.93-7.03-24.23-9.21-9.3-2.18-19.26-3.27-29.86-3.27h-40.63v84.27Z"/>
            </g>
            <g>
              <path class="cls-1" d="M938.24,383.95h-36.66v-93.84c-19.18,19.72-39.69,35.44-61.49,47.14-21.83,11.66-50.21,22.93-85.16,33.67l-18.52-32.71c53.33-10.78,95.12-26.94,125.35-48.46h-119.06v-31.95h158.88v-19.72h-119.46v-102.1l-11.02,14.99c-3.43,4.45-7.1,8.66-11.04,12.63l-2.37,2.37-21.69-35.52c32.59-31.27,58.08-67.66,76.48-109.19l37.06,6.73c-4.21,11.26-8.94,21.13-14.19,29.54-.28,.52-.8,1.44-1.58,2.77h78.45l-6.31-13.79c-4.21-8.7-7.36-14.71-9.46-18.16l35.88-6.69,10.64,19.72,8.28,18.92h126.95v29.18h-128.13v19.68h112.74v26.82h-112.74v22.09h112.74v26.82h-112.74v22.85h134.05v30.34h-145.87v19.72h155.71v31.95h-117.07c31.01,20.76,71.73,36,122.2,45.7l-16.96,35.48c-64.64-17.6-112.62-44.54-143.89-80.81v93.84Zm-22.47-274.79v-19.68h-97.77v19.68h97.77Zm0,48.9v-22.09h-97.77v22.09h97.77Zm0,49.67v-22.85h-97.77v22.85h97.77Z"/>
              <path class="cls-1" d="M1316.31,208.13v5.89c0,43.65-9.4,78.53-28.18,104.66-18.8,26.18-49.75,47.9-92.84,65.26l-25.23-31.95c39.42-14.71,67.4-32.31,83.96-52.79,16.56-20.52,24.83-49.43,24.83-86.75v-4.33h-104.06v-34.31h160.44v-60.29h-80.03c-2.1,3.13-3.81,5.77-5.11,7.86-8.16,12.39-17.76,24.33-28.78,35.88l-7.1,7.1-35.88-22.45,9.86-9.86c27.06-28.66,48.86-62.69,65.44-102.1l39.02,6.29-9.08,22.09c-2.63,7.1-6.17,14.31-10.64,21.69h62.29V21.25h39.42v58.77h132.84v33.51h-132.84v60.29h152.95v34.31h-112.74v109.59c0,14.43,5.65,21.69,16.96,21.69h40.21c7.62,0,12.61-1.96,14.97-5.93,2.37-3.93,5.39-25.9,9.08-65.82l36.66,11.83c-3.43,46.5-9,73.96-16.76,82.38-7.76,8.42-21.09,12.63-40.01,12.63h-52.83c-30.75,0-46.12-18.12-46.12-54.4v-111.96h-60.71Z"/>
              <path class="cls-1" d="M1753.89,93.01l-25.23,24.45-22.09-34.31c-4.47-6.53-9.84-14.19-16.15-22.85-.78-1.04-1.84-2.49-3.15-4.33-1.32,2.08-2.51,3.93-3.55,5.49-15.51,25.25-28.78,43.89-39.83,56h93.42v31.95h-36.66v31.91h48.1v31.95h-48.1v113.52l23.65-7.1c8.16-2.61,16.17-5.65,24.05-9.06v33.51c-37.58,13.91-82.78,25.21-135.61,33.87l-4.73-35.48,33.91-4.33c8.92-1.32,17.86-3.01,26.8-5.13v-119.82h-57.56v-31.95h57.56v-31.91h-39.81v-16.19l-11.85,11.06-13.79-37.08c22.61-16.56,44.68-44.54,66.22-83.94h30.37l28.78,34.67c4.19,5.25,9.84,12.87,16.94,22.85,.8,1.32,1.98,3.05,3.57,5.13,30.2-16.56,55.44-38.08,75.68-64.66l34.29,6.73-7.88,10.62-7.5,7.9h100.13v27.58c-20.24,24.69-39.02,42.57-56.38,53.63,25.23,10.5,51.39,17.72,78.45,21.69l-10.64,33.87-15.75-3.93c-31.03-8.14-57.96-18.4-80.83-30.75-24.17,12.63-54.14,23.53-89.87,32.71-2.63,.8-6.05,1.84-10.24,3.17l-17.36-31.15c33.11-5.77,62.41-14.31,87.91-25.61l-17.74-16.56-15.37-16.56-13.41,9.06-14.97,9.46-13.79-20.12Zm-132.86,224.32c-1.32-30.51-4.59-56.76-9.86-78.85l29.18-3.93c3.67,15.51,6.17,27.86,7.5,37.04l5.11,39.81-31.93,5.93Zm130.5-82.02c-2.12,31.83-5.67,54.16-10.66,67.02l-28.76-6.29c4.99-15.23,8.66-34.71,11.02-58.37,0-1.28,.26-3.13,.8-5.49l27.6,3.13Zm206.56-39.4v29.94h-83.18v23.65h73.32v28.42h-73.32v28.74h89.09v29.98h-89.09v47.3h-34.69v-47.3h-82v-29.98h82v-28.74h-69.77v-28.42h69.77v-23.65h-75.68v-29.94h75.68v-27.22h34.69v27.22h83.18Zm-139.94-122.62c8.92,13.43,22.07,25.9,39.4,37.48,3.17-2.12,5.79-3.81,7.9-5.13,16.01-10.5,28.5-21.29,37.44-32.35h-84.74Z"/>
              <path class="cls-1" d="M2111.43,77.25c-1.82,.24-3.41,.4-4.73,.4-13.13,2.08-21.55,3.29-25.21,3.53l-29.96,2.37-7.9-32.31c58.89-4.21,108.29-13.43,148.24-27.62l13.01,31.55c-15.25,5.53-32.85,10.38-52.83,14.59-1.3,.28-3.15,.64-5.51,1.16v54.44h58.75v33.11h-58.75v3.13l32.33,30.39c6.03,5.49,14.71,14.43,26.02,26.78,1.58,1.84,3.81,4.21,6.69,7.1l-21.29,33.11c-7.1-9.7-14.71-19.56-22.87-29.54l-20.88-25.61v178.58l-35.1,1.56V225.85c-11.28,26.02-28.76,54.68-52.41,85.94l-21.69-34.67c29.16-35.24,53.47-74.76,72.92-118.65h-70.55v-33.11h71.73v-48.1Zm89.11,220.35v-35.88l128.9-18.92V21.25h35.88V238.48l34.69-5.89v35.08l-34.69,5.89v110.4h-35.88v-106.03l-128.9,19.68Zm83.56-78.05c-26.28-21-45.46-35.48-57.54-43.37-3.17-1.84-7.38-4.45-12.63-7.86l22.87-25.65c22.87,12.11,46.66,27.86,71.35,47.3l-24.05,29.58Zm7.1-93.44l-33.49-26.02c-5.79-4.45-15.39-11.02-28.78-19.72-1.84-1.04-4.21-2.61-7.1-4.73l22.87-25.61c13.65,7.38,25.47,14.59,35.48,21.69l35.08,25.25-24.05,29.14Z"/>
              <path class="cls-1" d="M2615.25,135.18h-45.34v68.23l22.47-7.9c6.03-2.08,12.47-4.73,19.3-7.9,.8-.24,1.84-.64,3.17-1.16v37.84c-11.04,4.73-17.88,7.62-20.5,8.66l-24.43,9.1v99.33c0,13.67-2.51,23.77-7.5,30.35-4.99,6.57-17.36,9.86-37.06,9.86h-30.35l-9.08-39.04,33.51,1.2c8.42,0,12.61-4.21,12.61-12.63v-78.45l-26.02,6.69-25.62,6.33-9.08-41.41,30.37-4.73c14.19-3.17,24.31-5.53,30.35-7.1v-77.29h-56.76v-35.08h56.76V21.25h37.86V100.1h45.34v-24.45h82.78V21.25h38.24v54.4h90.67v35.12h-90.67v51.23h77.67v32.35c-11.58,39.4-34.05,75.04-67.42,106.83,21.55,17.88,50.59,32.83,87.13,44.94l-19.7,36.28c-35.5-12.91-67.28-31.95-95.4-57.16-37.06,26.78-75.82,46.1-116.31,57.92l-21.29-35.08c39.42-11.3,76.48-27.86,111.18-49.67-2.37-2.65-4.33-4.73-5.91-6.29-17.88-19.72-35.36-44.98-52.43-75.72l31.93-12.59c18.66,30.75,36.4,55.16,53.21,73.32,23.39-21.81,42.05-48.34,55.98-79.65h-152.95v-35.48h76.08v-51.23h-82.78v24.41Z"/>
            </g>
          </g>
          <g>
            <path class="cls-1" d="M176.77,.03h0V.03Z"/>
            <g>
              <g>
                <g>
                  <path class="cls-1" d="M2.16,490.56c.16,12.52-5.05,27.47,2.8,49.32,1.15,3.21,1.21,5.74,1.87,8.33,30.61,40.66,132.6,138.52,364.63,54.96,6.32-5.92,12.45-12.16,18.41-18.68C98.16,690.97,2.16,490.56,2.16,490.56Z"/>
                  <path class="cls-1" d="M6.84,548.21c1.12,4.42,2.34,8.33,3.61,11.78,17.44,53.03,61.72,110.52,171.19,114.86,16.74,.91,34.62,.1,53.63-2.72,47.84-7.09,91.23-29.21,128.71-62.14h.01v-.02c2.53-2.22,5.01-4.5,7.48-6.81-232.03,83.56-334.02-14.3-364.63-54.96Z"/>
                  <polygon class="cls-1" points="457.33 487.09 457.33 487.09 457.33 487.09 457.33 487.09"/>
                  <path class="cls-1" d="M131.13,536.52C38.69,464.91,1.98,494.71,1.14,495.33c0,0,97.02,195.65,388.74,89.15,21.11-23.14,39.9-49.91,56-79.4l.04-.05c4.03-5.92,7.82-11.91,11.41-17.93-69.21,112.97-232.71,121.85-326.2,49.43Z"/>
                </g>
                <g>
                  <rect class="cls-1" x="101.54" y="277.33" width="39.6" height="39.6"/>
                  <rect class="cls-1" x="43.79" y="313.77" width="23.51" height="23.51"/>
                  <rect class="cls-1" x="74.09" y="343.64" width="23.52" height="23.51"/>
                  <rect class="cls-1" x="35.75" y="230.05" width="39.6" height="39.6"/>
                  <rect class="cls-1" x="190.44" y="211.88" width="75.94" height="75.94"/>
                  <rect class="cls-1" x="97.61" y="151.92" width="75.94" height="75.94"/>
                </g>
                <g>
                  <path class="cls-1" d="M483.51,199.76v.02c-7.96-18.61-17.56-37.98-29.08-58.02-.34-12.35,3.78-27.61,37.26-48.11,24.62-15.06,23.64-51.98,20.37-74.25-.2-1.58-.42-3.06-.64-4.46,.22,1.35,.44,2.76,.64,4.25h0c-.28-2.07-.59-4.01-.91-5.81-.6-3.52-1.22-6.34-1.7-8.31-.47-2.01-.79-3.18-.79-3.18v.03c.09,.32,.37,1.37,.75,2.97-.38-1.55-.66-2.54-.74-2.86,6.23,39.14-84.19,40.89-70.12,94.4-20.57-50.69-92.63,.32-112.11-32.41-.17-.43-.29-.77-.33-.99,.04,.2,.13,.5,.27,.88-.17-.29-.34-.57-.5-.87-.04-.1-.07-.18-.09-.24l-.02-.03s.03,.09,.09,.24c-.02-.05-.05-.09-.08-.13,.36,.91,3.09,7.67,7.63,15.92,10.8,19.8,32.13,49.95,60.86,47.25,37.92-3.55,50.8,5.53,58.05,15.29,15.95,36.05,21.73,77.67,17.39,118.63h0c-8.81,88.48-62.03,172.87-151.81,187.6-53.61,8.8-138.56-58.57-207.73-52.77h0c-2.84,.24-5.66,.61-8.43,1.12C28.7,407.6,6.12,461.31,1.14,495.33c17.91-1.58,55.66,2.42,117.08,42.73,21.8,14.31,46.31,27.59,71.98,38.38,74.2,20.09,164.95,12.93,226.99-26.22l.05-.06c2.46-2.8,7.46-8.5,16.45-18.74,.03-.04,.06-.08,.09-.11,.01-.01,.05-.05,.04-.04l-.13,.15c-5.25,6.46-10.74,12.7-16.45,18.74-.02,.02-.03-1.33-.05-1.31,15.36-9.7,28.98-22.4,40.13-36.4h0c48.87-60,58.24-127.78,59.96-158.72,4.58-77.51-33.78-153.97-33.78-153.97Z"/>
                  <path class="cls-1" d="M417.18,550.22c-62.04,39.15-152.79,46.31-226.99,26.22,59.06,24.82,124.29,36.43,176.95,16.86,18.14-12.56,34.88-27.05,50.04-43.08Z"/>
                  <path class="cls-1" d="M1.25,511.46h0c0,.33-.79,.66-.8,.99-.17,4.32-.44,6.84-.44,6.84l.28-.24c4.67-2.21,43.49-17.66,130.94,33.27,17.58,10.24,37.58,18.32,59.02,24.12-25.67-10.79-50.2-24.07-72-38.38-61.42-40.32-99.19-44.32-117.09-42.73-.75,5.14-.28,9.71-.51,13.43-.06,.83,.61,1.73,.61,2.69Z"/>
                  <path class="cls-1" d="M1.25,511.46h0c0,.33-.79,.66-.8,.99-.17,4.32-.44,6.84-.44,6.84l.28-.24c4.67-2.21,43.49-17.66,130.94,33.27,17.58,10.24,37.58,18.32,59.02,24.12-25.67-10.79-50.2-24.07-72-38.38-61.42-40.32-99.19-44.32-117.09-42.73-.75,5.14-.28,9.71-.51,13.43-.06,.83,.61,1.73,.61,2.69Z"/>
                  <path class="cls-1" d="M433.78,531.3s-.06,.08-.09,.11l.13-.15s-.03,.03-.04,.04Z"/>
                  <path class="cls-1" d="M433.78,531.3s-.06,.08-.09,.11l.13-.15s-.03,.03-.04,.04Z"/>
                  <path class="cls-1" d="M417.18,550.22h0l.05-.06-.05,.06Z"/>
                  <path class="cls-1" d="M417.18,550.22h0l.05-.06-.05,.06Z"/>
                  <path class="cls-1" d="M417.24,550.16c5.71-6.04,11.2-12.29,16.45-18.74-8.99,10.24-13.99,15.94-16.45,18.74Z"/>
                </g>
                <path class="cls-1" d="M370.34,559.92s112.46,29.07,138.46,0c25.99-29.07,18.81-30.59,0-30.72-56.83-.38-52.01-7.68-77.06-35.51-19.29-21.44-61.4,66.23-61.4,66.23Z"/>
                <circle class="cls-1" cx="154.23" cy="531.66" r="10.45" transform="translate(-330.77 264.78) rotate(-45)"/>
              </g>
              <g class="cls-3">
                <ellipse class="cls-1" cx="200.85" cy="720.68" rx="197.15" ry="21.5"/>
              </g>
            </g>
          </g>
        </g>
      </g>
    </g>
  </g>
</svg>